<svg xmlns="http://www.w3.org/2000/svg" width="158" height="147" viewBox="0 0 158 147"><rect width="100%" height="100%" fill="#DDDDDD"/><path fill="#999999" d="M39.07 79.15h2.73v1.94h-8.4v-1.94h3.08V70.3q0-.53.03-1.09l-2.18 1.83q-.19.15-.37.19-.19.03-.35 0t-.29-.11-.19-.17l-.82-1.13 4.63-3.93h2.13zm8.85-10.89-.54 3.16q.5-.11.97-.15.46-.05.89-.05 1.2 0 2.11.36.91.35 1.53.98t.94 1.48q.31.84.31 1.82 0 1.21-.42 2.21-.43.99-1.19 1.7-.75.71-1.79 1.1-1.03.39-2.25.39-.71 0-1.35-.15t-1.2-.39q-.57-.25-1.04-.57-.48-.32-.86-.68l.8-1.1q.25-.36.66-.36.26 0 .54.17.27.17.62.37t.83.37q.48.16 1.15.16.71 0 1.26-.23t.91-.64q.36-.42.54-.99.19-.57.19-1.24 0-1.24-.72-1.94t-2.13-.7q-1.08 0-2.21.4l-1.62-.46 1.26-7.37h7.5v1.1q0 .56-.35.9-.35.35-1.18.35zm13.47 10.97q.64 0 1.12-.18.48-.19.81-.51.33-.33.5-.78t.17-.98q0-1.24-.69-1.89-.7-.64-1.91-.64-1.22 0-1.91.64-.7.65-.7 1.89 0 .53.17.98t.5.78q.33.32.81.51.49.18 1.13.18m0-11.54q-.58 0-1 .18t-.7.48-.41.69q-.13.38-.13.81 0 .46.11.88.11.43.37.76.27.33.7.53t1.06.2 1.06-.2.69-.53.37-.76q.11-.42.11-.88 0-.43-.13-.81-.14-.39-.41-.69-.28-.3-.7-.48t-.99-.18m2.56 5.48q1.38.45 2.05 1.38.66.93.66 2.28 0 1-.39 1.82-.38.82-1.07 1.4t-1.67.89q-.97.32-2.14.32-1.18 0-2.15-.32-.97-.31-1.66-.89-.7-.58-1.08-1.4t-.38-1.82q0-1.35.66-2.28t2.04-1.38q-1.1-.46-1.65-1.31t-.55-2.05q0-.86.35-1.6.35-.75.98-1.3t1.51-.86 1.93-.31 1.92.31q.88.31 1.51.86t.98 1.3q.35.74.35 1.6 0 1.2-.55 2.05t-1.65 1.31m19.68 4.44-1.38 1.36-3.56-3.56-3.59 3.58-1.38-1.35 3.6-3.61-3.43-3.42 1.37-1.36 3.42 3.42 3.4-3.4 1.39 1.36-3.41 3.41zM98 79.15h2.73v1.94h-8.4v-1.94h3.08V70.3q0-.53.03-1.09l-2.19 1.83q-.18.15-.37.19-.18.03-.34 0-.17-.03-.29-.11-.13-.08-.19-.17l-.82-1.13 4.63-3.93H98zm6.9-3.78h4.62V70.4q0-.7.09-1.55zm6.88 0h1.91v1.5q0 .21-.14.36t-.39.15h-1.38v3.71h-2.26v-3.71h-6.41q-.26 0-.46-.16t-.25-.4l-.27-1.32 7.19-9.6h2.46zm3.42-9.46h10.49v1.12q0 .5-.11.81-.1.31-.21.52l-5.75 11.85q-.18.37-.5.62-.33.26-.88.26h-1.87l5.86-11.6q.2-.36.4-.66.19-.3.43-.57h-7.26q-.24 0-.42-.18t-.18-.42z"/></svg>