<svg xmlns="http://www.w3.org/2000/svg" width="171" height="15" viewBox="0 0 171 15"><rect width="100%" height="100%" fill="#DDDDDD"/><path fill="#999999" d="M72.7 9.625h1.04v.74h-3.2v-.74h1.17v-3.37q0-.2.01-.41l-.83.69q-.07.06-.14.07-.07.02-.14 0-.06-.01-.11-.04-.04-.03-.07-.06l-.31-.43 1.76-1.5h.82zm1.91-5.04h3.99v.42q0 .2-.04.31-.04.12-.08.2l-2.19 4.51q-.07.14-.19.24t-.33.1h-.72l2.24-4.42q.07-.14.15-.25.07-.11.16-.22h-2.76q-.1 0-.16-.07-.07-.06-.07-.16zm7.37 5.04h1.04v.74h-3.2v-.74h1.17v-3.37q0-.2.01-.41l-.83.69q-.07.06-.14.07-.07.02-.14 0-.06-.01-.11-.04-.04-.03-.07-.06l-.31-.43 1.76-1.5h.82zm7.69-.58-.53.51-1.35-1.35-1.37 1.36-.52-.52 1.36-1.37-1.3-1.3.52-.52 1.3 1.3 1.3-1.29.53.52-1.3 1.3zm5.47.58h1.04v.74h-3.2v-.74h1.18v-3.37q0-.2.01-.41l-.83.69q-.08.06-.15.07-.07.02-.13 0-.06-.01-.11-.04t-.07-.06l-.31-.43 1.76-1.5h.81zm3.37-4.15-.2 1.21q.19-.04.37-.06.17-.02.34-.02.45 0 .8.14.35.13.58.37.24.24.36.56.12.33.12.7 0 .46-.16.84t-.45.65-.68.42q-.4.14-.86.14-.27 0-.52-.05-.24-.06-.46-.15-.21-.1-.39-.22t-.33-.26l.31-.42q.09-.13.25-.13.1 0 .2.06.11.07.24.14.13.08.32.14.18.07.43.07.28 0 .48-.09.21-.09.35-.25t.21-.37q.07-.22.07-.48 0-.47-.28-.74-.27-.26-.81-.26-.41 0-.84.15l-.62-.18.48-2.8h2.86v.42q0 .21-.13.34t-.45.13z"/></svg>