<svg xmlns="http://www.w3.org/2000/svg" width="173" height="27" viewBox="0 0 173 27"><rect width="100%" height="100%" fill="#DDDDDD"/><path fill="#999999" d="M63.94 17.27h1.82v1.29h-5.6v-1.29h2.05v-5.91q0-.35.02-.72l-1.45 1.22q-.13.1-.25.12-.12.03-.23.01t-.19-.08q-.09-.05-.13-.11l-.55-.75 3.09-2.63h1.42zm3.35-8.83h6.99v.75q0 .33-.07.54t-.14.35l-3.83 7.89q-.12.25-.34.42t-.58.17h-1.25l3.91-7.74q.13-.23.26-.43t.29-.38h-4.84q-.16 0-.28-.12t-.12-.28zm9.13 2.98-.91-.16q.11-.73.41-1.28t.75-.92q.45-.36 1.04-.55.58-.18 1.25-.18.7 0 1.27.2.56.19.96.55.4.35.61.83.22.47.22 1.03 0 .48-.11.85-.11.36-.31.64-.21.27-.51.46t-.68.31q.91.29 1.36.88t.45 1.48q0 .75-.28 1.33-.28.59-.76.98-.47.4-1.1.6t-1.33.2q-.76 0-1.33-.17-.56-.18-.98-.52t-.72-.84q-.29-.5-.5-1.15l.76-.31q.3-.13.57-.07.26.06.38.28.12.25.27.49.15.23.36.42t.5.3q.28.12.67.12.44 0 .77-.15.33-.14.55-.37t.33-.52q.11-.28.11-.57 0-.36-.08-.66-.07-.3-.32-.51-.24-.21-.7-.33-.46-.11-1.23-.11v-1.24q.64 0 1.06-.12.42-.11.67-.31.24-.2.34-.48t.1-.61q0-.72-.4-1.09t-1.06-.37q-.31 0-.57.09t-.47.24q-.2.16-.34.37t-.21.46q-.12.33-.31.43-.2.11-.55.05m17.22 4.82-.91.91-2.38-2.38-2.39 2.39-.92-.9 2.4-2.4-2.29-2.29.91-.91 2.29 2.29 2.26-2.27.93.91-2.28 2.27zm8.43.71h2.6q.28 0 .44.16.17.16.17.41v1.04h-6.95v-.57q0-.18.08-.37.07-.19.23-.35l3.07-3.08q.39-.39.69-.75.31-.35.51-.7t.31-.71q.11-.37.11-.76 0-.37-.1-.64-.11-.28-.3-.47t-.46-.28q-.27-.1-.61-.1-.31 0-.57.09t-.46.24q-.21.16-.35.37t-.21.46q-.12.33-.31.43-.18.11-.54.05l-.91-.16q.1-.73.4-1.28.31-.55.76-.92.45-.36 1.03-.55.59-.18 1.26-.18.7 0 1.28.2.58.21.99.59.42.38.65.91t.23 1.18q0 .56-.16 1.04-.17.47-.45.91-.27.43-.64.84-.37.4-.78.82l-2.28 2.33q.33-.1.65-.15.33-.05.62-.05m4.5-8.51h7v.75q0 .33-.07.54t-.14.35l-3.84 7.89q-.12.25-.34.42-.21.17-.58.17h-1.25l3.91-7.74q.14-.23.27-.43t.29-.38h-4.85q-.16 0-.28-.12t-.12-.28z"/></svg>