<svg xmlns="http://www.w3.org/2000/svg" width="198" height="112" viewBox="0 0 198 112"><rect width="100%" height="100%" fill="#DDDDDD"/><path fill="#999999" d="M47.825 63.26h3.51v2.5h-10.8v-2.5h3.96V51.88q0-.67.04-1.39l-2.81 2.35q-.24.19-.48.24-.24.04-.45 0-.2-.04-.37-.14-.16-.1-.24-.22l-1.05-1.45 5.95-5.06h2.74zm9.65-11.16q0 1.63.85 2.49.84.86 2.39.86.81 0 1.45-.26.63-.26 1.07-.7.43-.45.65-1.06.22-.6.22-1.3 0-.8-.24-1.43t-.69-1.06q-.44-.43-1.06-.66-.61-.23-1.34-.23-.76 0-1.37.25-.6.25-1.03.69-.44.45-.67 1.06-.23.62-.23 1.35m-1.63 13.66 6.06-7.57q.23-.29.43-.56.21-.27.4-.54-.68.44-1.49.66t-1.7.22q-1.01 0-1.98-.35-.98-.35-1.73-1.06-.76-.71-1.22-1.76-.47-1.04-.47-2.45 0-1.3.49-2.45.48-1.15 1.36-2.01.88-.87 2.11-1.37 1.22-.5 2.71-.5 1.5 0 2.69.48 1.2.47 2.04 1.32t1.3 2.04q.45 1.19.45 2.6 0 .91-.16 1.72-.15.81-.44 1.56-.28.75-.68 1.46-.41.72-.91 1.42l-4.47 6.37q-.23.32-.69.55-.45.22-1.03.22zm20.67-2.39q.82 0 1.44-.24.62-.23 1.05-.65t.64-1q.22-.58.22-1.26 0-1.6-.89-2.42-.9-.83-2.46-.83-1.57 0-2.46.83-.89.82-.89 2.42 0 .68.22 1.26.21.58.64 1 .42.42 1.04.65.63.24 1.45.24m0-14.84q-.74 0-1.28.23t-.9.62q-.36.38-.53.88t-.17 1.05q0 .59.15 1.13.14.55.47.97.34.43.9.69.55.25 1.36.25t1.36-.25q.56-.26.89-.69.34-.42.48-.97.14-.54.14-1.13 0-.55-.17-1.05-.18-.5-.53-.88-.35-.39-.89-.62t-1.28-.23m3.29 7.05q1.79.58 2.64 1.78.85 1.19.85 2.92 0 1.3-.5 2.35-.49 1.05-1.38 1.79-.89.75-2.14 1.15-1.25.41-2.76.41t-2.76-.41q-1.25-.4-2.14-1.15-.89-.74-1.39-1.79-.49-1.05-.49-2.35 0-1.73.85-2.92.85-1.2 2.63-1.78-1.41-.59-2.12-1.69-.71-1.09-.71-2.63 0-1.11.45-2.06.45-.96 1.26-1.67t1.94-1.11 2.48-.4 2.48.4q1.12.4 1.93 1.11t1.27 1.67q.45.95.45 2.06 0 1.54-.71 2.63-.71 1.1-2.13 1.69m25.3 5.71-1.77 1.74-4.57-4.57-4.62 4.6-1.77-1.74 4.62-4.63-4.4-4.4 1.75-1.76 4.4 4.4 4.38-4.37 1.78 1.75-4.39 4.39zm18.48 1.97h3.51v2.5h-10.8v-2.5h3.96V51.88q0-.67.04-1.39l-2.81 2.35q-.24.19-.48.24-.23.04-.44 0t-.37-.14q-.17-.1-.25-.22l-1.05-1.45 5.95-5.06h2.74zm15.66 0h3.51v2.5h-10.8v-2.5h3.96V51.88q0-.67.04-1.39l-2.81 2.35q-.24.19-.48.24-.23.04-.44 0t-.37-.14q-.17-.1-.25-.22l-1.05-1.45 5.95-5.06h2.74zm13.44-.6h5q.54 0 .86.3t.32.8v2h-13.39v-1.11q0-.33.14-.71.14-.37.45-.66l5.93-5.94q.74-.76 1.33-1.45.58-.69.98-1.36.39-.68.6-1.37.21-.7.21-1.47 0-.7-.21-1.23-.2-.54-.57-.9t-.89-.55q-.52-.18-1.17-.18-.59 0-1.1.17t-.9.47q-.39.31-.66.71-.27.41-.4.89-.23.62-.6.83-.36.2-1.05.09l-1.76-.31q.21-1.4.79-2.46t1.45-1.77 2-1.07q1.12-.36 2.42-.36 1.35 0 2.47.4t1.92 1.13q.79.73 1.24 1.75.44 1.03.44 2.28 0 1.08-.31 2-.32.92-.85 1.76-.54.84-1.25 1.62-.72.78-1.5 1.59l-4.4 4.5q.63-.19 1.26-.29t1.2-.1"/></svg>