<svg xmlns="http://www.w3.org/2000/svg" width="219" height="123" viewBox="0 0 219 123"><rect width="100%" height="100%" fill="#DDDDDD"/><path fill="#999999" d="M52.56 68.655h5.38q.58 0 .92.32.34.33.34.86v2.15H44.82v-1.19q0-.36.15-.76t.48-.72l6.37-6.38q.8-.81 1.43-1.55t1.05-1.46q.42-.73.64-1.48.23-.74.23-1.57 0-.75-.22-1.33-.22-.57-.62-.96-.39-.39-.95-.59-.56-.19-1.26-.19-.63 0-1.18.18-.54.18-.96.51-.42.32-.71.76-.29.43-.44.95-.24.67-.64.89-.39.22-1.13.1l-1.88-.33q.22-1.51.84-2.65t1.56-1.9q.93-.76 2.14-1.14 1.21-.39 2.61-.39 1.45 0 2.65.43t2.06 1.21q.85.78 1.33 1.88.48 1.11.48 2.45 0 1.16-.34 2.15t-.91 1.89q-.58.9-1.34 1.74-.77.84-1.61 1.71l-4.73 4.83q.68-.21 1.35-.32.68-.1 1.29-.1m19.21.65h3.77v2.68h-11.6v-2.68h4.25v-12.23q0-.72.04-1.49l-3.01 2.52q-.26.21-.52.26-.25.05-.48 0-.22-.04-.4-.15-.17-.11-.26-.24l-1.13-1.55 6.4-5.44h2.94zm10.37-11.99q0 1.75.9 2.67.91.92 2.58.92.87 0 1.55-.27.68-.28 1.15-.76.46-.48.7-1.13t.24-1.41q0-.85-.26-1.52-.26-.68-.74-1.14-.48-.47-1.14-.71-.66-.25-1.44-.25-.82 0-1.47.27t-1.11.74q-.47.48-.72 1.14-.24.66-.24 1.45m-1.76 14.67 6.51-8.13q.25-.31.47-.6t.42-.58q-.73.46-1.6.7t-1.82.24q-1.09 0-2.13-.37-1.05-.38-1.86-1.14t-1.31-1.89q-.5-1.12-.5-2.63 0-1.41.52-2.64t1.46-2.16q.95-.93 2.27-1.46 1.31-.54 2.91-.54 1.61 0 2.89.51 1.29.51 2.19 1.42.91.91 1.39 2.19.49 1.27.49 2.8 0 .97-.17 1.84-.16.87-.47 1.67-.3.81-.74 1.58-.43.77-.97 1.52l-4.8 6.84q-.25.35-.74.59t-1.11.24zm36.09-4.8-1.9 1.87-4.91-4.91-4.96 4.94-1.9-1.87 4.96-4.97-4.73-4.73 1.89-1.89 4.72 4.73 4.7-4.7 1.92 1.89-4.72 4.71zm19.85 2.12h3.77v2.68h-11.6v-2.68h4.25v-12.23q0-.72.05-1.49l-3.02 2.52q-.26.21-.51.26-.26.05-.48 0-.23-.04-.4-.15-.18-.11-.26-.24l-1.13-1.55 6.39-5.44h2.94zm14.43-.65h5.38q.58 0 .92.32.34.33.34.86v2.15h-14.38v-1.19q0-.36.15-.76t.49-.72l6.36-6.38q.8-.81 1.43-1.55t1.05-1.46q.42-.73.65-1.48.22-.74.22-1.57 0-.75-.22-1.33-.21-.57-.61-.96t-.96-.59q-.56-.19-1.25-.19-.64 0-1.18.18-.55.18-.97.51-.42.32-.71.76-.29.43-.43.95-.25.67-.64.89t-1.13.1l-1.89-.33q.22-1.51.84-2.65.63-1.14 1.56-1.9.94-.76 2.15-1.14 1.21-.39 2.6-.39 1.45 0 2.65.43 1.21.43 2.06 1.21.86.78 1.34 1.88.48 1.11.48 2.45 0 1.16-.35 2.15-.34.99-.91 1.89t-1.34 1.74-1.61 1.71l-4.73 4.83q.68-.21 1.36-.32.67-.1 1.28-.1m11.43-11.46-1.89-.33q.22-1.51.84-2.65.63-1.14 1.56-1.9.94-.76 2.15-1.14 1.21-.39 2.6-.39 1.45 0 2.62.41 1.17.42 1.99 1.15.83.73 1.27 1.72.44.98.44 2.13 0 1-.22 1.76-.23.76-.65 1.33-.42.56-1.04.95-.62.4-1.41.66 1.89.59 2.82 1.81.92 1.22.92 3.06 0 1.57-.58 2.77t-1.56 2.02q-.99.82-2.29 1.24-1.29.42-2.74.42-1.58 0-2.76-.36-1.17-.36-2.04-1.07t-1.48-1.74-1.05-2.38l1.58-.65q.63-.27 1.17-.14.55.12.79.59.26.5.57 1 .32.49.75.87.44.39 1.02.63.59.24 1.4.24.92 0 1.6-.3t1.14-.78q.45-.48.68-1.06.22-.59.22-1.18 0-.76-.16-1.37-.16-.62-.66-1.06-.51-.43-1.46-.68-.95-.24-2.55-.24v-2.56q1.32-.01 2.19-.24t1.39-.65q.51-.41.72-.99.2-.58.2-1.28 0-1.48-.83-2.24-.82-.77-2.2-.77-.64 0-1.18.18-.53.18-.96.51-.43.32-.72.76-.29.43-.43.95-.25.67-.65.89t-1.12.1"/></svg>