<svg xmlns="http://www.w3.org/2000/svg" width="237" height="56" viewBox="0 0 237 56"><rect width="100%" height="100%" fill="#DDDDDD"/><path fill="#999999" d="M71.45 34.905h5.19q.56 0 .89.31.33.32.33.84v2.07H63.97v-1.15q0-.35.15-.73.14-.39.47-.7l6.14-6.16q.77-.78 1.38-1.49.61-.72 1.02-1.42.4-.7.62-1.42t.22-1.52q0-.73-.21-1.28t-.6-.93q-.38-.38-.92-.57t-1.21-.19q-.62 0-1.15.18-.52.17-.93.49-.4.31-.68.73t-.42.93q-.24.64-.62.85t-1.09.1l-1.82-.32q.21-1.46.81-2.56t1.51-1.83q.9-.74 2.07-1.11t2.51-.37q1.4 0 2.56.42 1.17.41 1.99 1.16.83.76 1.29 1.82.46 1.07.46 2.37 0 1.12-.33 2.07t-.88 1.82-1.29 1.68q-.75.81-1.56 1.65l-4.56 4.67q.66-.2 1.31-.31.65-.1 1.24-.1m11.03-11.06-1.82-.32q.21-1.46.81-2.56t1.5-1.83q.91-.74 2.08-1.11t2.51-.37q1.4 0 2.53.4 1.12.4 1.92 1.11.8.7 1.23 1.66.42.95.42 2.05 0 .97-.21 1.71-.22.73-.63 1.28-.4.54-1 .92-.61.38-1.36.63 1.82.57 2.71 1.75.9 1.18.9 2.95 0 1.52-.56 2.68T92 36.745t-2.21 1.2q-1.25.4-2.65.4-1.53 0-2.66-.35t-1.97-1.03q-.84-.69-1.43-1.68-.59-1-1.01-2.3l1.53-.63q.6-.25 1.12-.13.53.12.77.57.25.49.55.96.3.48.72.85t.99.6q.56.23 1.35.23.88 0 1.54-.29.66-.28 1.1-.74.44-.47.65-1.03.22-.57.22-1.14 0-.73-.15-1.33-.16-.59-.65-1.01t-1.4-.66q-.92-.24-2.46-.24v-2.46q1.27-.02 2.11-.24t1.34-.62.69-.96q.2-.56.2-1.23 0-1.43-.8-2.17-.8-.75-2.13-.75-.61 0-1.13.18-.52.17-.93.49-.41.31-.69.73t-.42.93q-.24.64-.63.85-.38.21-1.08.1m14.21-5.96h13.98v1.49q0 .68-.14 1.09t-.28.69l-7.67 15.79q-.24.49-.67.84-.43.34-1.16.34h-2.51l7.83-15.47q.26-.48.52-.87.26-.4.58-.77h-9.68q-.33 0-.56-.24-.24-.23-.24-.56zm36.47 15.61-1.84 1.8-4.74-4.74-4.79 4.77-1.83-1.81 4.78-4.8-4.56-4.56 1.82-1.82 4.56 4.56 4.54-4.53 1.85 1.82-4.55 4.55zm14.71-12.48-.71 4.22q.67-.14 1.29-.21.61-.06 1.19-.06 1.59 0 2.81.48 1.22.47 2.04 1.31.83.84 1.25 1.97t.42 2.43q0 1.61-.57 2.94-.56 1.33-1.57 2.27-1.01.95-2.39 1.47-1.38.51-3 .51-.95 0-1.81-.19-.85-.2-1.6-.53t-1.39-.75q-.63-.43-1.14-.91l1.07-1.47q.33-.47.88-.47.35 0 .71.22.37.23.83.49.47.27 1.11.49.64.23 1.53.23.96 0 1.68-.31.73-.31 1.21-.86.49-.56.73-1.32.25-.76.25-1.66 0-1.65-.96-2.58t-2.84-.93q-1.44 0-2.95.53l-2.16-.62 1.68-9.82h10v1.47q0 .74-.46 1.2t-1.57.46zm23.16-3.13-6.01 7.35-.7.86q.59-.29 1.27-.45t1.46-.16q1.15 0 2.23.38 1.09.37 1.92 1.14.82.76 1.33 1.89.5 1.14.5 2.65 0 1.41-.52 2.65t-1.45 2.17q-.94.92-2.27 1.45-1.32.53-2.91.53-1.63 0-2.92-.51-1.28-.52-2.19-1.45t-1.4-2.24q-.48-1.31-.48-2.91 0-1.43.58-2.93.58-1.51 1.8-3.13l4.83-6.48q.25-.34.74-.58.48-.23 1.11-.23zm-5.22 17.64q.82 0 1.51-.28.7-.28 1.2-.79.49-.5.77-1.18t.28-1.48q0-.87-.26-1.56-.27-.69-.76-1.17-.49-.49-1.18-.74-.68-.25-1.51-.25-.82 0-1.5.28-.67.28-1.14.77-.48.5-.75 1.18-.26.68-.26 1.46 0 .84.23 1.54.23.69.69 1.18.45.49 1.12.76.67.28 1.56.28"/></svg>