<svg xmlns="http://www.w3.org/2000/svg" width="462" height="73" viewBox="0 0 462 73"><rect width="100%" height="100%" fill="#DDDDDD"/><path fill="#999999" d="M163.455 39.795h8.14v-8.75q0-1.24.17-2.74zm12.12 0h3.37v2.64q0 .37-.24.64-.25.27-.69.27h-2.44v6.53h-3.98v-6.53h-11.28q-.47 0-.82-.29-.35-.28-.44-.71l-.48-2.31 12.67-16.93h4.33zm21.9-16.67-7.93 9.71-.93 1.15q.78-.39 1.68-.6.89-.22 1.93-.22 1.52 0 2.95.5t2.52 1.51q1.1 1.01 1.76 2.51.67 1.5.67 3.49 0 1.87-.69 3.51-.68 1.64-1.92 2.86t-2.99 1.92q-1.75.71-3.86.71-2.14 0-3.84-.69-1.71-.68-2.91-1.91t-1.84-2.96-.64-3.84q0-1.89.77-3.88t2.38-4.13l6.38-8.57q.33-.44.97-.76.64-.31 1.47-.31zm-6.9 23.31q1.09 0 2.01-.37.91-.37 1.57-1.04.66-.66 1.03-1.56t.37-1.95q0-1.15-.35-2.06-.35-.92-1-1.56t-1.56-.97q-.9-.33-1.99-.33-1.1 0-1.98.37-.89.37-1.52 1.02-.63.66-.98 1.56t-.35 1.93q0 1.11.3 2.03.31.91.91 1.56t1.49 1.01 2.05.36m22.05-.81h6.87q.74 0 1.17.41.44.42.44 1.1v2.74h-18.36v-1.52q0-.46.2-.97.19-.51.62-.91l8.12-8.14q1.02-1.04 1.82-1.98.81-.95 1.34-1.87.54-.93.83-1.88.28-.95.28-2.01 0-.96-.27-1.69-.28-.73-.79-1.23t-1.22-.75-1.6-.25q-.82 0-1.51.23t-1.23.65-.91.97q-.37.56-.55 1.22-.32.85-.81 1.13-.5.28-1.45.13l-2.4-.43q.27-1.92 1.07-3.37t1.99-2.43q1.19-.97 2.74-1.46 1.54-.49 3.32-.49 1.85 0 3.38.55 1.54.54 2.63 1.54t1.7 2.41q.61 1.4.61 3.12 0 1.48-.43 2.74-.44 1.26-1.17 2.41t-1.71 2.22-2.05 2.18l-6.03 6.16q.87-.26 1.73-.4.86-.13 1.63-.13m38.63-1.87-2.42 2.38-6.27-6.27-6.33 6.31-2.42-2.39 6.32-6.34-6.03-6.03 2.41-2.41 6.03 6.03 5.99-5.99 2.44 2.4-6.01 6.02zm12.71-20.63h18.48v1.98q0 .89-.18 1.43-.19.55-.37.92l-10.14 20.87q-.31.64-.89 1.1-.57.45-1.53.45h-3.32l10.35-20.44q.35-.63.69-1.16t.77-1.01h-12.8q-.43 0-.74-.31-.32-.32-.32-.74zm24.14 7.88-2.4-.43q.28-1.92 1.07-3.37.8-1.45 1.99-2.43 1.19-.97 2.74-1.46 1.54-.49 3.32-.49 1.85 0 3.34.53t2.54 1.46q1.06.94 1.62 2.19.57 1.26.57 2.72 0 1.28-.29 2.25t-.82 1.69q-.54.73-1.34 1.23-.79.49-1.79.83 2.4.76 3.59 2.31 1.18 1.55 1.18 3.9 0 2-.74 3.54-.74 1.53-2 2.58-1.25 1.04-2.91 1.58t-3.51.54q-2.01 0-3.51-.47-1.5-.46-2.61-1.37-1.11-.9-1.89-2.22-.77-1.31-1.33-3.03l2.02-.83q.79-.33 1.49-.18.69.16 1.01.75.33.65.73 1.28.39.63.95 1.12.55.49 1.3.79.75.31 1.79.31 1.16 0 2.03-.38t1.46-.99q.58-.61.87-1.36.28-.75.28-1.51 0-.96-.2-1.75-.2-.78-.85-1.34-.65-.55-1.86-.87-1.21-.31-3.25-.31v-3.26q1.69-.02 2.8-.31 1.11-.3 1.76-.83.66-.52.92-1.26t.26-1.63q0-1.89-1.06-2.87-1.05-.98-2.81-.98-.81 0-1.5.23-.68.23-1.23.65-.54.42-.91.97-.37.56-.56 1.22-.31.85-.82 1.13t-1.44.13"/></svg>