<svg xmlns="http://www.w3.org/2000/svg" width="486" height="273" viewBox="0 0 486 273"><rect width="100%" height="100%" fill="#DDDDDD"/><path fill="#999999" d="M105.49 142.29h14.3v-15.38q0-2.17.3-4.81zm21.29 0h5.92v4.64q0 .65-.43 1.13-.42.47-1.2.47h-4.29V160h-6.99v-11.47H99.97q-.81 0-1.43-.51-.62-.5-.78-1.25l-.85-4.06 22.27-29.74h7.6zm26.43 11.96q1.98 0 3.47-.57 1.5-.57 2.52-1.58 1.03-1.01 1.54-2.4.52-1.4.52-3.03 0-3.86-2.14-5.85-2.14-1.98-5.91-1.98-3.78 0-5.92 1.98-2.14 1.99-2.14 5.85 0 1.63.52 3.03.51 1.39 1.54 2.4 1.02 1.01 2.52 1.58 1.49.57 3.48.57m0-35.72q-1.79 0-3.09.55t-2.16 1.48q-.87.93-1.27 2.13-.41 1.2-.41 2.54 0 1.39.34 2.71.34 1.31 1.16 2.34.81 1.02 2.14 1.64 1.34.62 3.29.62 1.94 0 3.28-.62 1.33-.62 2.14-1.64.82-1.03 1.16-2.34.34-1.32.34-2.71 0-1.34-.42-2.54-.43-1.2-1.27-2.13-.85-.93-2.15-1.48t-3.08-.55m7.92 16.96q4.3 1.4 6.34 4.28 2.05 2.87 2.05 7.03 0 3.12-1.19 5.66-1.18 2.54-3.33 4.32-2.14 1.79-5.15 2.76-3.01.98-6.64.98-3.65 0-6.65-.98-3.01-.97-5.15-2.76-2.15-1.78-3.33-4.32-1.19-2.54-1.19-5.66 0-4.16 2.05-7.03 2.04-2.88 6.33-4.28-3.41-1.43-5.11-4.06-1.71-2.63-1.71-6.34 0-2.66 1.09-4.97t3.04-4.01q1.95-1.71 4.66-2.67 2.72-.96 5.97-.96t5.96.96 4.66 2.67q1.95 1.7 3.04 4.01t1.09 4.97q0 3.71-1.71 6.34-1.7 2.63-5.12 4.06M202.96 113l-13.94 17.07-1.62 2.01q1.36-.68 2.94-1.05 1.57-.38 3.39-.38 2.67 0 5.19.88t4.43 2.65q1.92 1.77 3.09 4.4t1.17 6.14q0 3.29-1.2 6.16-1.21 2.88-3.38 5.03-2.18 2.14-5.25 3.37-3.07 1.24-6.78 1.24-3.77 0-6.76-1.2-2.99-1.21-5.1-3.37t-3.23-5.2-1.12-6.74q0-3.31 1.34-6.81 1.35-3.49 4.18-7.26l11.21-15.05q.59-.78 1.71-1.33 1.12-.56 2.58-.56zm-12.12 40.96q1.92 0 3.53-.66 1.61-.65 2.76-1.82t1.8-2.74q.65-1.58.65-3.43 0-2.02-.62-3.62-.61-1.61-1.75-2.73t-2.73-1.71-3.51-.59-3.48.65-2.66 1.81q-1.11 1.15-1.73 2.73-.61 1.58-.61 3.39 0 1.96.53 3.56.54 1.61 1.6 2.75 1.05 1.14 2.61 1.77 1.56.64 3.61.64m68.9-4.72-4.26 4.19-11.01-11.01-11.12 11.08-4.26-4.19 11.12-11.15-10.6-10.6 4.23-4.22 10.59 10.59 10.53-10.52 4.29 4.22-10.56 10.56zm39.13 3.28h12.06q1.3 0 2.06.74.77.73.77 1.93V160h-32.24v-2.67q0-.81.34-1.7.34-.9 1.09-1.61l14.26-14.3q1.79-1.82 3.2-3.48 1.42-1.65 2.36-3.28t1.45-3.3q.5-1.67.5-3.53 0-1.68-.49-2.97-.48-1.28-1.38-2.16-.89-.88-2.14-1.32t-2.81-.44q-1.43 0-2.65.41t-2.16 1.14q-.95.73-1.6 1.7-.65.98-.97 2.15-.55 1.49-1.43 1.98t-2.54.23l-4.22-.75q.49-3.38 1.88-5.93 1.4-2.55 3.5-4.26 2.09-1.7 4.81-2.56 2.71-.87 5.83-.87 3.25 0 5.95.96t4.61 2.72q1.92 1.75 2.99 4.22 1.08 2.47 1.08 5.49 0 2.6-.77 4.81-.76 2.21-2.05 4.23-1.28 2.02-3 3.9-1.72 1.89-3.61 3.83l-10.59 10.83q1.52-.46 3.03-.7 1.52-.25 2.88-.25m20.9-39.52h32.47v3.48q0 1.56-.33 2.52-.32.96-.65 1.61l-17.81 36.66q-.55 1.14-1.56 1.93-1.01.8-2.7.8h-5.81l18.16-35.91q.62-1.11 1.22-2.03.6-.93 1.35-1.78h-22.49q-.75 0-1.3-.55t-.55-1.3zm42.41 13.85-4.22-.75q.48-3.38 1.88-5.93t3.49-4.26q2.1-1.7 4.81-2.56 2.72-.87 5.84-.87 3.25 0 5.86.93 2.62.93 4.47 2.57 1.86 1.64 2.85 3.85t.99 4.78q0 2.24-.51 3.95-.5 1.7-1.44 2.97t-2.34 2.15q-1.4.87-3.15 1.46 4.22 1.33 6.3 4.06t2.08 6.86q0 3.51-1.3 6.2-1.3 2.7-3.51 4.54t-5.12 2.78-6.16.94q-3.54 0-6.17-.81t-4.58-2.41q-1.95-1.59-3.32-3.9-1.36-2.31-2.34-5.33l3.54-1.46q1.4-.58 2.62-.31 1.22.28 1.77 1.32.59 1.13 1.28 2.24.7 1.1 1.68 1.97.97.86 2.29 1.39 1.32.54 3.14.54 2.04 0 3.57-.67 1.53-.66 2.55-1.73 1.03-1.08 1.53-2.39.5-1.32.5-2.65 0-1.69-.35-3.07-.36-1.39-1.5-2.36-1.14-.98-3.27-1.53-2.12-.55-5.7-.55v-5.72q2.96-.03 4.91-.55t3.1-1.45q1.16-.93 1.61-2.23.46-1.3.46-2.86 0-3.31-1.86-5.03-1.85-1.73-4.94-1.73-1.43 0-2.63.41t-2.16 1.14-1.61 1.7q-.65.98-.97 2.15-.56 1.49-1.45 1.98t-2.52.23"/></svg>