<svg xmlns="http://www.w3.org/2000/svg" width="509" height="26" viewBox="0 0 509 26"><rect width="100%" height="100%" fill="#DDDDDD"/><path fill="#999999" d="m231.62 9.76-.33 1.95q.31-.06.6-.09.28-.03.55-.03.74 0 1.31.22.56.22.95.61.38.39.57.92.2.52.2 1.12 0 .75-.26 1.37-.27.62-.73 1.05-.47.44-1.11.68t-1.4.24q-.44 0-.84-.09-.39-.09-.74-.24t-.64-.35q-.3-.2-.53-.42l.49-.68q.16-.22.41-.22.16 0 .33.1l.39.23q.22.12.51.22.3.11.71.11.45 0 .78-.14.34-.15.57-.4.22-.26.33-.62.12-.35.12-.77 0-.76-.45-1.19-.44-.44-1.31-.44-.67 0-1.38.25l-1-.29.78-4.56h4.64v.68q0 .35-.21.56-.21.22-.73.22zM243.41 13q0 1.23-.27 2.14-.26.9-.73 1.49-.46.6-1.09.88-.64.29-1.37.29-.74 0-1.36-.29-.63-.28-1.09-.88-.46-.59-.72-1.49-.26-.91-.26-2.14t.26-2.14q.26-.9.72-1.49t1.09-.88q.62-.29 1.36-.29.73 0 1.37.29.63.29 1.09.88.47.59.73 1.49.27.91.27 2.14m-1.66 0q0-1.02-.15-1.69t-.4-1.07q-.25-.39-.58-.55-.32-.16-.67-.16t-.67.16-.57.55q-.24.4-.39 1.07t-.15 1.69.15 1.69.39 1.07q.25.39.57.55t.67.16.67-.16q.33-.16.58-.55.25-.4.4-1.07t.15-1.69m4.13-1.88q0 .79.4 1.2.41.41 1.16.41.39 0 .69-.12.31-.12.52-.34.2-.21.31-.5.11-.3.11-.64 0-.38-.12-.68t-.33-.51q-.22-.21-.51-.32-.3-.11-.65-.11-.36 0-.65.12-.3.12-.5.33-.21.22-.32.52-.11.29-.11.64m-.79 6.58 2.92-3.65q.11-.13.21-.26l.18-.26q-.32.2-.71.31t-.82.11q-.49 0-.95-.17-.47-.17-.84-.51-.36-.34-.59-.84-.22-.51-.22-1.18 0-.64.23-1.19.24-.55.66-.97.42-.41 1.02-.65.59-.24 1.3-.24.72 0 1.3.22.57.23.98.64t.62.98q.22.57.22 1.26 0 .43-.07.82-.08.39-.21.75-.14.36-.34.71-.19.34-.43.68l-2.15 3.07q-.11.16-.33.26-.23.11-.5.11zm16.18-2.15-.85.84-2.21-2.21-2.22 2.22-.85-.84 2.22-2.23-2.12-2.12.85-.84 2.12 2.12 2.1-2.11.86.85-2.11 2.11zm7.82.65h2.42q.26 0 .41.15t.15.39v.96h-6.45v-.53q0-.17.07-.34.07-.18.22-.33l2.85-2.86q.36-.36.64-.69.29-.33.47-.66.19-.32.29-.66.1-.33.1-.7 0-.34-.09-.6-.1-.25-.28-.43t-.43-.26q-.25-.09-.56-.09-.29 0-.53.08t-.43.23q-.19.14-.32.34-.13.19-.2.43-.11.3-.28.39-.18.1-.51.05l-.84-.15q.09-.68.37-1.19t.7-.85.96-.51q.55-.17 1.17-.17.65 0 1.19.19t.92.54q.39.35.6.85.22.49.22 1.09 0 .52-.16.97-.15.44-.41.84-.25.4-.6.78-.34.38-.72.77l-2.12 2.16q.31-.09.61-.14t.57-.05m9.76-7.9-2.79 3.41-.32.41q.27-.14.59-.21.31-.08.67-.08.54 0 1.04.18.51.17.89.53.38.35.62.88.23.52.23 1.22 0 .66-.24 1.24-.24.57-.68 1-.43.43-1.05.68-.61.24-1.35.24-.76 0-1.35-.24-.6-.24-1.02-.67-.43-.43-.65-1.04t-.22-1.35q0-.66.26-1.36.27-.7.84-1.45l2.24-3.01q.12-.16.34-.27.23-.11.52-.11zm-2.42 8.19q.38 0 .7-.13t.55-.36q.23-.24.36-.55.13-.32.13-.69 0-.4-.12-.72t-.35-.55q-.23-.22-.55-.34-.31-.12-.7-.12-.38 0-.69.13-.32.13-.54.36t-.34.55q-.12.31-.12.68 0 .39.1.71.11.32.32.55t.52.35q.32.13.73.13"/></svg>