<svg xmlns="http://www.w3.org/2000/svg" width="509" height="58" viewBox="0 0 509 58"><rect width="100%" height="100%" fill="#DDDDDD"/><path fill="#999999" d="m203.555 21.765-.74 4.37q.7-.15 1.33-.21.64-.07 1.24-.07 1.65 0 2.91.49 1.26.5 2.12 1.37.85.87 1.29 2.03.43 1.17.43 2.52 0 1.67-.58 3.04-.59 1.38-1.63 2.36-1.05.98-2.48 1.52-1.43.53-3.11.53-.98 0-1.87-.2-.88-.2-1.66-.54-.77-.35-1.43-.79t-1.19-.93l1.11-1.53q.34-.49.91-.49.36 0 .74.23.38.24.86.51.49.28 1.15.51t1.59.23q.98 0 1.74-.32.75-.32 1.25-.89t.75-1.36q.26-.79.26-1.72 0-1.71-1-2.68-.99-.96-2.93-.96-1.5 0-3.06.55l-2.23-.64 1.74-10.18h10.35v1.53q0 .76-.48 1.24t-1.62.48zm26.29 7.24q0 2.74-.59 4.76t-1.62 3.34q-1.04 1.32-2.45 1.97-1.42.64-3.06.64-1.63 0-3.03-.64-1.4-.65-2.43-1.97t-1.61-3.34-.58-4.76q0-2.76.58-4.77.58-2.02 1.61-3.34t2.43-1.96q1.4-.65 3.03-.65 1.64 0 3.06.65 1.41.64 2.45 1.96 1.03 1.32 1.62 3.34.59 2.01.59 4.77m-3.7 0q0-2.28-.33-3.77-.34-1.5-.89-2.38-.56-.89-1.29-1.24-.72-.36-1.51-.36-.76 0-1.48.36-.72.35-1.27 1.24-.55.88-.88 2.38-.32 1.49-.32 3.77 0 2.27.32 3.77.33 1.49.88 2.37.55.89 1.27 1.24.72.36 1.48.36.79 0 1.51-.36.73-.35 1.29-1.24.55-.88.89-2.37.33-1.5.33-3.77m9.21-4.19q0 1.75.9 2.67.91.92 2.58.92.87 0 1.55-.27.68-.28 1.15-.76.46-.48.7-1.13t.24-1.41q0-.85-.26-1.52-.26-.68-.74-1.14-.48-.47-1.14-.71-.66-.25-1.44-.25-.82 0-1.47.27t-1.11.74q-.47.48-.72 1.14-.24.66-.24 1.45m-1.76 14.67 6.51-8.13q.25-.31.47-.6t.42-.58q-.73.46-1.6.7t-1.82.24q-1.09 0-2.13-.37-1.05-.38-1.86-1.14t-1.31-1.89q-.5-1.12-.5-2.63 0-1.41.52-2.64t1.46-2.16q.95-.93 2.27-1.46 1.31-.54 2.91-.54 1.61 0 2.89.51 1.29.51 2.19 1.42.91.91 1.39 2.19.49 1.27.49 2.8 0 .97-.17 1.84-.16.87-.47 1.67-.3.81-.74 1.58-.43.77-.97 1.52l-4.8 6.84q-.25.35-.74.59t-1.11.24zm36.09-4.8-1.9 1.87-4.91-4.91-4.96 4.94-1.9-1.87 4.96-4.97-4.73-4.73 1.89-1.89 4.72 4.73 4.7-4.7 1.92 1.89-4.72 4.71zm15.24-12.92-.74 4.37q.7-.15 1.34-.21.64-.07 1.23-.07 1.65 0 2.92.49 1.26.5 2.11 1.37.86.87 1.29 2.03.44 1.17.44 2.52 0 1.67-.59 3.04-.59 1.38-1.63 2.36t-2.47 1.52q-1.43.53-3.11.53-.99 0-1.87-.2-.89-.2-1.66-.54-.78-.35-1.44-.79t-1.18-.93l1.1-1.53q.35-.49.91-.49.37 0 .74.23.38.24.87.51.48.28 1.14.51t1.59.23q.99 0 1.74-.32t1.25-.89.76-1.36q.25-.79.25-1.72 0-1.71-.99-2.68-.99-.96-2.94-.96-1.49 0-3.06.55l-2.23-.64 1.74-10.18h10.35v1.53q0 .76-.48 1.24-.47.48-1.62.48zm18.61 15.15q.88 0 1.55-.25t1.12-.7q.46-.45.69-1.08.23-.62.23-1.35 0-1.72-.95-2.6-.96-.89-2.64-.89t-2.64.89q-.96.88-.96 2.6 0 .73.23 1.35.24.63.69 1.08.46.45 1.13.7.66.25 1.55.25m0-15.93q-.8 0-1.38.24-.58.25-.96.66-.39.42-.57.95-.18.54-.18 1.13 0 .63.15 1.22.15.58.52 1.04.36.46.95.73.6.28 1.47.28t1.46-.28q.6-.27.96-.73t.51-1.04q.16-.59.16-1.22 0-.59-.19-1.13-.19-.53-.57-.95-.38-.41-.96-.66-.58-.24-1.37-.24m3.54 7.57q1.91.62 2.82 1.9.92 1.29.92 3.14 0 1.39-.53 2.53-.53 1.13-1.49 1.92-.96.8-2.3 1.24-1.34.43-2.96.43-1.63 0-2.97-.43-1.34-.44-2.3-1.24-.95-.79-1.48-1.92-.53-1.14-.53-2.53 0-1.85.91-3.14.92-1.28 2.83-1.9-1.52-.64-2.28-1.82-.77-1.17-.77-2.82 0-1.19.49-2.22t1.36-1.79 2.08-1.19 2.66-.43 2.66.43 2.08 1.19 1.35 1.79q.49 1.03.49 2.22 0 1.65-.76 2.82-.76 1.18-2.28 1.82"/></svg>