<svg width="24" height="24" viewBox="0 0 24 24" fill="none" xmlns="http://www.w3.org/2000/svg">
    <path fill-rule="evenodd" clip-rule="evenodd" d="M5.77778 4C4.79601 4 4 4.79514 4 5.77778V18.2222C4 19.2049 4.79601 20 5.77778 20H18.2222C19.204 20 20 19.2049 20 18.2222V5.77778C20 4.79514 19.204 4 18.2222 4H5.77778ZM12.8889 8.44444C12.3976 8.44444 12 8.84201 12 9.33333C12 9.82465 12.3976 10.2222 12.8889 10.2222H14.3038L11.7691 12.7674L10.4488 11.4497C10.1016 11.1042 9.53906 11.1042 9.19184 11.4514L6.67795 13.9653C6.44878 14.1944 6.37066 14.5174 6.44358 14.8108C6.48177 14.9618 6.5599 15.1042 6.67795 15.2222C7.02517 15.5694 7.58767 15.5694 7.9349 15.2222L9.82118 13.3351L11.1432 14.6545C11.3099 14.8212 11.5365 14.9132 11.7726 14.9132C12.0078 14.9132 12.2344 14.8194 12.4002 14.651L15.5556 11.4844V12.8889C15.5556 13.3802 15.9531 13.7778 16.4444 13.7778C16.9349 13.7778 17.3333 13.3802 17.3333 12.8889V9.33333C17.3333 8.84201 16.9349 8.44444 16.4444 8.44444H12.8889Z" fill="white">
    </path>
</svg>