<svg width="18" height="18" viewBox="0 0 18 18" fill="none" xmlns="http://www.w3.org/2000/svg">
    <path fill-rule="evenodd" clip-rule="evenodd" d="M1.77778 0C0.796007 0 0 0.795139 0 1.77778V14.2222C0 15.2049 0.796007 16 1.77778 16H14.2222C15.204 16 16 15.2049 16 14.2222V1.77778C16 0.795139 15.204 0 14.2222 0H1.77778ZM8.88889 4.44444C8.39757 4.44444 8 4.84201 8 5.33333C8 5.82465 8.39757 6.22222 8.88889 6.22222H10.3038L7.7691 8.76736L6.44878 7.44965C6.10156 7.10417 5.53906 7.10417 5.19184 7.45139L2.67795 9.96528C2.44878 10.1944 2.37066 10.5174 2.44358 10.8108C2.48177 10.9618 2.5599 11.1042 2.67795 11.2222C3.02517 11.5694 3.58767 11.5694 3.9349 11.2222L5.82118 9.33507L7.14323 10.6545C7.3099 10.8212 7.53646 10.9132 7.77257 10.9132C8.00781 10.9132 8.23438 10.8194 8.40017 10.651L11.5556 7.48438V8.88889C11.5556 9.38021 11.9531 9.77778 12.4444 9.77778C12.9349 9.77778 13.3333 9.38021 13.3333 8.88889V5.33333C13.3333 4.84201 12.9349 4.44444 12.4444 4.44444H8.88889Z" fill="#DB0049">
    </path>
</svg>