<svg class="Icon_size--lg__AnuSv" xmlns="http://www.w3.org/2000/svg" viewBox="0 0 70 29" role="img" style="fill-rule:evenodd;clip-rule:evenodd;stroke-linejoin:round;stroke-miterlimit:2">
    <path d="M344.8 443.17h-94.6c-4.68 0-8.48-3.8-8.48-8.48V406.3c0-4.68 3.8-8.48 8.48-8.48h94.6c4.68 0 8.48 3.8 8.48 8.48v28.39c0 4.69-3.8 8.48-8.48 8.48Z" style="fill:red;fill-rule:nonzero" transform="matrix(.62747 0 0 .63052 -151.631 -250.833)">
    </path>

    <circle cx="264.47" cy="420.5" r="12.62" style="fill:#fff" transform="matrix(.62747 0 0 .63052 -151.631 -250.833)">
    </circle>

    <path d="M290.34 428.63h8.36v3.95h-13.12V409h4.76v19.63Z" style="fill:#fff;fill-rule:nonzero" transform="matrix(.62747 0 0 .63052 -151.631 -250.833)">
    </path>

    <path style="fill:#fff" d="M301.66 409h4.76v23.58h-4.76z" transform="matrix(.62747 0 0 .63052 -151.631 -250.833)">
    </path>

    <path d="m318.1 426.1 3.97-17.11h5.31l-6.8 23.58h-4.96L308.87 409h5.28l3.95 17.1ZM341.78 422.38h-7.42v6.25h8.78v3.95H329.6V409h13.51v3.97h-8.75v5.57h7.42v3.84Z" style="fill:#fff;fill-rule:nonzero" transform="matrix(.62747 0 0 .63052 -151.631 -250.833)">
    </path>
</svg>