<svg width="25" height="17" viewBox="0 0 25 20" fill="none" xmlns="http://www.w3.org/2000/svg">
    <path d="M21.3415 1.00009H7.91216C7.21821 1.00843 6.54909 1.2595 6.02095 1.70973C5.4928 2.15995 5.13898 2.78089 5.0209 3.46477H3.96236C3.17669 3.46477 2.4232 3.77688 1.86765 4.33243C1.3121 4.88798 1 5.64146 1 6.42713V17.0047C0.999998 17.3436 1.06687 17.6791 1.19678 17.9921C1.3267 18.305 1.5171 18.5893 1.75707 18.8285C1.99704 19.0677 2.28187 19.2573 2.59523 19.3862C2.90859 19.5152 3.24432 19.581 3.58317 19.58H21.7523C22.0905 19.58 22.4254 19.5134 22.7378 19.384C23.0502 19.2545 23.3341 19.0648 23.5733 18.8257C23.8124 18.5866 24.0021 18.3027 24.1315 17.9902C24.2609 17.6778 24.3276 17.3429 24.3276 17.0047V3.96245C24.3276 3.57143 24.2502 3.18427 24.0998 2.82331C23.9495 2.46234 23.7291 2.13472 23.4515 1.85932C23.1739 1.58393 22.8446 1.36622 22.4824 1.21875C22.1203 1.07128 21.7325 0.996967 21.3415 1.00009ZM2.18494 17.0047V6.42713C2.18494 5.95573 2.3722 5.50364 2.70553 5.17031C3.03886 4.83698 3.49096 4.64972 3.96236 4.64972H4.97351V17.0047C4.98559 17.0965 4.98559 17.1894 4.97351 17.2812C4.90967 17.6238 4.71951 17.9299 4.44068 18.1389C4.16186 18.348 3.81471 18.4447 3.46797 18.4099C3.12123 18.3751 2.80019 18.2114 2.56843 17.9512C2.33666 17.6909 2.21108 17.3531 2.21654 17.0047H2.18494ZM23.1189 17.0047C23.1189 17.1873 23.083 17.3681 23.0131 17.5368C22.9432 17.7055 22.8408 17.8587 22.7117 17.9878C22.5826 18.1169 22.4293 18.2193 22.2606 18.2892C22.092 18.3591 21.9112 18.395 21.7286 18.395H5.74767C6.01134 17.9789 6.15361 17.4974 6.15845 17.0047V3.96245C6.15841 3.49513 6.34241 3.04659 6.67063 2.71393C6.99885 2.38128 7.44488 2.19127 7.91216 2.18504H21.3415C21.8129 2.18504 22.265 2.3723 22.5983 2.70563C22.9317 3.03896 23.1189 3.49105 23.1189 3.96245V17.0047Z" fill="#005ac7" stroke="#005ac7" stroke-width="0.5"></path>
    <path d="M9.49203 11.033H14.1528C14.5755 11.0331 14.9816 10.8679 15.2842 10.5727C15.5868 10.2775 15.7619 9.87569 15.7722 9.45308V5.50327C15.7723 5.29242 15.7302 5.0837 15.6483 4.88939C15.5664 4.69509 15.4465 4.51913 15.2956 4.37189C15.1447 4.22466 14.9658 4.10912 14.7696 4.03208C14.5733 3.95505 14.3636 3.91807 14.1528 3.92335H9.49203C9.07301 3.92335 8.67115 4.0898 8.37486 4.38609C8.07857 4.68239 7.91211 5.08425 7.91211 5.50327V9.45308C7.91211 9.8721 8.07857 10.274 8.37486 10.5702C8.67115 10.8665 9.07301 11.033 9.49203 11.033ZM9.06545 5.50327C9.06545 5.39013 9.1104 5.28163 9.19039 5.20163C9.27039 5.12163 9.3789 5.07669 9.49203 5.07669H14.1528C14.2667 5.07667 14.376 5.12136 14.4573 5.20114C14.5385 5.28092 14.5852 5.38941 14.5873 5.50327V9.45308C14.5873 9.56831 14.5415 9.67882 14.46 9.7603C14.3785 9.84178 14.268 9.88755 14.1528 9.88755H9.49203C9.37818 9.88548 9.26968 9.8388 9.1899 9.75754C9.11012 9.67628 9.06543 9.56695 9.06545 9.45308V5.50327Z" fill="#005ac7" stroke="#005ac7" stroke-width="0.5"></path>
    <path d="M20.8518 3.98535H17.3918C17.2347 3.98535 17.084 4.04777 16.9728 4.15888C16.8617 4.26999 16.7993 4.42069 16.7993 4.57782C16.7993 4.73496 16.8617 4.88565 16.9728 4.99676C17.084 5.10787 17.2347 5.17029 17.3918 5.17029H20.8597C21.0169 5.17029 21.1675 5.10787 21.2787 4.99676C21.3898 4.88565 21.4522 4.73496 21.4522 4.57782C21.4522 4.42069 21.3898 4.26999 21.2787 4.15888C21.1675 4.04777 21.0169 3.98535 20.8597 3.98535H20.8518Z" fill="#005ac7" stroke="#005ac7" stroke-width="0.5"></path>
    <path d="M20.8518 6.86914H17.3918C17.2347 6.86914 17.084 6.93156 16.9728 7.04267C16.8617 7.15378 16.7993 7.30448 16.7993 7.46161C16.7993 7.61874 16.8617 7.76944 16.9728 7.88055C17.084 7.99166 17.2347 8.05408 17.3918 8.05408H20.8597C21.0169 8.05408 21.1675 7.99166 21.2787 7.88055C21.3898 7.76944 21.4522 7.61874 21.4522 7.46161C21.4522 7.30448 21.3898 7.15378 21.2787 7.04267C21.1675 6.93156 21.0169 6.86914 20.8597 6.86914H20.8518Z" fill="#005ac7" stroke="#005ac7" stroke-width="0.5"></path>
    <path d="M20.8518 9.74512H17.3918C17.2347 9.74512 17.084 9.80754 16.9728 9.91865C16.8617 10.0298 16.7993 10.1805 16.7993 10.3376C16.7993 10.4947 16.8617 10.6454 16.9728 10.7565C17.084 10.8676 17.2347 10.9301 17.3918 10.9301H20.8597C21.0169 10.9301 21.1675 10.8676 21.2787 10.7565C21.3898 10.6454 21.4522 10.4947 21.4522 10.3376C21.4522 10.1805 21.3898 10.0298 21.2787 9.91865C21.1675 9.80754 21.0169 9.74512 20.8597 9.74512H20.8518Z" fill="#005ac7" stroke="#005ac7" stroke-width="0.5"></path>
    <path d="M20.8517 12.6279H8.43354C8.2764 12.6279 8.12571 12.6904 8.0146 12.8015C7.90349 12.9126 7.84106 13.0633 7.84106 13.2204C7.84106 13.3775 7.90349 13.5282 8.0146 13.6393C8.12571 13.7504 8.2764 13.8129 8.43354 13.8129H20.8517C21.0089 13.8129 21.1596 13.7504 21.2707 13.6393C21.3818 13.5282 21.4442 13.3775 21.4442 13.2204C21.4442 13.0633 21.3818 12.9126 21.2707 12.8015C21.1596 12.6904 21.0089 12.6279 20.8517 12.6279Z" fill="#005ac7" stroke="#005ac7" stroke-width="0.5"></path>
    <path d="M20.8517 15.5049H8.43354C8.2764 15.5049 8.12571 15.5673 8.0146 15.6784C7.90349 15.7895 7.84106 15.9402 7.84106 16.0974C7.84106 16.2545 7.90349 16.4052 8.0146 16.5163C8.12571 16.6274 8.2764 16.6898 8.43354 16.6898H20.8517C21.0089 16.6898 21.1596 16.6274 21.2707 16.5163C21.3818 16.4052 21.4442 16.2545 21.4442 16.0974C21.4442 15.9402 21.3818 15.7895 21.2707 15.6784C21.1596 15.5673 21.0089 15.5049 20.8517 15.5049Z" fill="#005ac7" stroke="#005ac7" stroke-width="0.5"></path>
</svg>
