<svg xmlns="http://www.w3.org/2000/svg" width="22" height="23" viewBox="0 0 22 23" fill="none" class="Icon_size--md__Com0T">
    <path d="M10.1875 0.625C10.5703 0.625 10.8848 0.748047 11.1309 0.994141C11.377 1.24023 11.5 1.55469 11.5 1.9375V2.67578C13.0312 2.94922 14.2754 3.64648 15.2324 4.76758C16.2168 5.88867 16.7227 7.24219 16.75 8.82812V10.1816C16.7773 12.0957 17.3789 13.8047 18.5547 15.3086L19.1699 16.0879C19.3887 16.416 19.4297 16.7578 19.293 17.1133C19.1016 17.4688 18.8008 17.6602 18.3906 17.6875H1.98438C1.57422 17.6602 1.27344 17.4688 1.08203 17.1133C0.917969 16.7578 0.958984 16.416 1.20508 16.0879L1.82031 15.3086C2.99609 13.8047 3.59766 12.0957 3.625 10.1816V8.82812C3.65234 7.24219 4.1582 5.88867 5.14258 4.76758C6.09961 3.64648 7.34375 2.94922 8.875 2.67578V1.9375C8.875 1.55469 8.99805 1.24023 9.24414 0.994141C9.49023 0.748047 9.80469 0.625 10.1875 0.625ZM10.1875 4.5625H9.85938C8.65625 4.58984 7.64453 5 6.82422 5.79297C6.03125 6.61328 5.62109 7.625 5.59375 8.82812V10.1816C5.56641 12.2051 5.01953 14.0508 3.95312 15.7188H16.4219C15.3281 14.0508 14.7812 12.2051 14.7812 10.1816V8.82812C14.7539 7.625 14.3438 6.61328 13.5508 5.79297C12.7305 5 11.7188 4.58984 10.5156 4.5625H10.1875ZM12.8125 19C12.8125 19.7109 12.5527 20.3262 12.0332 20.8457C11.5137 21.3652 10.8984 21.625 10.1875 21.625C9.47656 21.625 8.86133 21.3652 8.3418 20.8457C7.82227 20.3262 7.5625 19.7109 7.5625 19H10.1875H12.8125Z" fill="#005ac7" class="Icon_color--primary__Tb3Uu white">
    </path>
    <ellipse cx="16.7729" cy="5.44913" rx="5" ry="4.90909" fill="#DB0049">
    </ellipse>
</svg>