<svg class="Icon_size--md__Com0T" width="20" height="20" viewBox="0 0 20 20" fill="none" xmlns="http://www.w3.org/2000/svg">
    <path fill-rule="evenodd" clip-rule="evenodd" d="M8 14.793C11.3137 14.793 14 12.1067 14 8.79297C14 5.47926 11.3137 2.79297 8 2.79297C4.68629 2.79297 2 5.47926 2 8.79297C2 12.1067 4.68629 14.793 8 14.793ZM8 16.793C12.4183 16.793 16 13.2112 16 8.79297C16 4.37469 12.4183 0.792969 8 0.792969C3.58172 0.792969 0 4.37469 0 8.79297C0 13.2112 3.58172 16.793 8 16.793Z" fill="#1B3967" fill-opacity="0.75">
    </path>
    <path fill-rule="evenodd" clip-rule="evenodd" d="M17.2928 18.5002L14.2928 15.5002L15.707 14.0859L18.707 17.0859C19.0976 17.4765 19.0976 18.1096 18.707 18.5002C18.3165 18.8907 17.6833 18.8907 17.2928 18.5002Z" fill="#1B3967" fill-opacity="0.75">
    </path>
</svg>