<svg xmlns="http://www.w3.org/2000/svg" width="25" height="25" viewBox="0 0 25 25" fill="#ffffff"><path d="M11.5 0.5C11.9375 0.5 12.2969 0.640625 12.5781 0.921875C12.8594 1.20312 13 1.5625 13 2V2.84375C14.75 3.15625 16.1719 3.95313 17.2656 5.23438C18.3906 6.51562 18.9688 8.0625 19 9.875V11.4219C19.0312 13.6094 19.7188 15.5625 21.0625 17.2812L21.7656 18.1719C22.0156 18.5469 22.0625 18.9375 21.9062 19.3438C21.6875 19.75 21.3438 19.9688 20.875 20H2.125C1.65625 19.9688 1.3125 19.75 1.09375 19.3438C0.90625 18.9375 0.953125 18.5469 1.23438 18.1719L1.9375 17.2812C3.28125 15.5625 3.96875 13.6094 4 11.4219V9.875C4.03125 8.0625 4.60938 6.51562 5.73438 5.23438C6.82812 3.95313 8.25 3.15625 10 2.84375V2C10 1.5625 10.1406 1.20312 10.4219 0.921875C10.7031 0.640625 11.0625 0.5 11.5 0.5ZM11.5 5H11.125C9.75 5.03125 8.59375 5.5 7.65625 6.40625C6.75 7.34375 6.28125 8.5 6.25 9.875V11.4219C6.21875 13.7344 5.59375 15.8438 4.375 17.75H18.625C17.375 15.8438 16.75 13.7344 16.75 11.4219V9.875C16.7188 8.5 16.25 7.34375 15.3438 6.40625C14.4062 5.5 13.25 5.03125 11.875 5H11.5ZM14.5 21.5C14.5 22.3125 14.2031 23.0156 13.6094 23.6094C13.0156 24.2031 12.3125 24.5 11.5 24.5C10.6875 24.5 9.98438 24.2031 9.39062 23.6094C8.79688 23.0156 8.5 22.3125 8.5 21.5H11.5H14.5Z"></path></svg>