<svg class="Icon_size--md__Com0T LoginButton_loginButton__icon__vXqp_" width="16" height="18" viewBox="0 0 18 21" fill="none" xmlns="http://www.w3.org/2000/svg">
    <path d="M12.375 5.5C12.349 4.32812 11.8281 3.42969 10.8125 2.80469C9.77083 2.23177 8.72917 2.23177 7.6875 2.80469C6.67188 3.42969 6.15104 4.32812 6.125 5.5C6.15104 6.67188 6.67188 7.57031 7.6875 8.19531C8.72917 8.76823 9.77083 8.76823 10.8125 8.19531C11.8281 7.57031 12.349 6.67188 12.375 5.5ZM4.25 5.5C4.25 4.58854 4.47135 3.75521 4.91406 3C5.35677 2.24479 5.96875 1.63281 6.75 1.16406C7.53125 0.721354 8.36458 0.5 9.25 0.5C10.1354 0.5 10.9688 0.721354 11.75 1.16406C12.5312 1.63281 13.1432 2.24479 13.5859 3C14.0286 3.75521 14.25 4.58854 14.25 5.5C14.25 6.41146 14.0286 7.24479 13.5859 8C13.1432 8.75521 12.5312 9.36719 11.75 9.83594C10.9688 10.2786 10.1354 10.5 9.25 10.5C8.36458 10.5 7.53125 10.2786 6.75 9.83594C5.96875 9.36719 5.35677 8.75521 4.91406 8C4.47135 7.24479 4.25 6.41146 4.25 5.5ZM2.41406 18.625H16.0859C15.8776 17.349 15.3177 16.3073 14.4062 15.5C13.4688 14.6927 12.349 14.276 11.0469 14.25H7.45312C6.15104 14.276 5.04427 14.6927 4.13281 15.5C3.19531 16.3073 2.6224 17.349 2.41406 18.625ZM0.5 19.3281C0.552083 17.375 1.22917 15.7344 2.53125 14.4062C3.85938 13.1042 5.5 12.4271 7.45312 12.375H11.0469C13 12.4271 14.6406 13.1042 15.9688 14.4062C17.2708 15.7344 17.9479 17.375 18 19.3281C18 19.6667 17.8828 19.9401 17.6484 20.1484C17.4401 20.3828 17.1667 20.5 16.8281 20.5H1.67188C1.33333 20.5 1.0599 20.3828 0.851562 20.1484C0.617188 19.9401 0.5 19.6667 0.5 19.3281Z" fill="#1b3967" stroke-width="0.05" stroke="#1b3967">
    </path>
</svg>